<svg id="Слой_1" data-name="Слой 1" xmlns="http://www.w3.org/2000/svg" viewBox="0 0 616.08 616.32"><defs><style>.cls-1{fill:#ce4646;}</style></defs><path class="cls-1" d="M613.41,180.17c-.27-2-.49-4-.81-6l-.22,0C597.91,100,536,44.16,461.81,44.16a145.9,145.9,0,0,0-73.14,19.66,32.25,32.25,0,0,0-16,28v53.62A32.38,32.38,0,0,0,405,177.81h45a32.39,32.39,0,0,1,32.38,32.39v64.4A32.38,32.38,0,0,1,450,307H405a32.38,32.38,0,0,0-32.38,32.39v26.44a32.39,32.39,0,0,1-32.39,32.39h-64.4a32.39,32.39,0,0,1-32.39-32.39V339.37A32.38,32.38,0,0,0,211.07,307H166a32.38,32.38,0,0,1-32.38-32.38V210.2A32.39,32.39,0,0,1,166,177.81h45a32.38,32.38,0,0,0,32.38-32.38V91.81a32.25,32.25,0,0,0-16-28,145.9,145.9,0,0,0-73.14-19.66c-74.19,0-136.1,55.79-150.57,130l-.22,0c-.32,2-.54,4-.81,6A174.83,174.83,0,0,0,.5,207.44c0,5.71.28,11.34.81,16.9C13.43,403.13,231.08,533.88,292.2,568a32.42,32.42,0,0,0,31.68,0C385,533.88,602.65,403.13,614.77,224.34c.53-5.56.81-11.19.81-16.9A174.83,174.83,0,0,0,613.41,180.17Z"/></svg>