<svg width="708" height="598" viewBox="0 0 708 598" fill="none" xmlns="http://www.w3.org/2000/svg">
<g clip-path="url(#clip0_28_2)">
<path d="M663.743 544.386C656.233 569.472 667.889 595.121 667.889 595.121C667.889 595.121 691.72 580.096 699.23 555.009C706.74 529.923 695.084 504.275 695.084 504.275C695.084 504.275 671.253 519.3 663.743 544.386Z" fill="#F2F2F2"/>
<path d="M675.146 545.065C681.466 570.477 668.616 595.548 668.616 595.548C668.616 595.548 645.519 579.418 639.198 554.006C632.878 528.594 645.727 503.522 645.727 503.522C645.727 503.522 668.825 519.653 675.146 545.065Z" fill="#F2F2F2"/>
<path d="M57.7431 545.386C50.2332 570.472 61.8885 596.121 61.8885 596.121C61.8885 596.121 85.7198 581.096 93.2297 556.009C100.74 530.923 89.0843 505.275 89.0843 505.275C89.0843 505.275 65.253 520.3 57.7431 545.386Z" fill="#E6E6E6"/>
<path d="M69.1455 546.065C75.4661 571.477 62.6164 596.548 62.6164 596.548C62.6164 596.548 39.5188 580.418 33.1982 555.006C26.8776 529.594 39.7273 504.522 39.7273 504.522C39.7273 504.522 62.8249 520.653 69.1455 546.065Z" fill="#E6E6E6"/>
<path d="M336.002 309.923C365.56 309.923 389.521 285.961 389.521 256.403C389.521 226.846 365.56 202.884 336.002 202.884C306.444 202.884 282.483 226.846 282.483 256.403C282.483 285.961 306.444 309.923 336.002 309.923Z" fill="#1FA2FF"/>
<path d="M333.569 595.749H318.81C317.087 595.747 315.434 595.062 314.216 593.843C312.997 592.624 312.312 590.972 312.31 589.249V466.235C312.312 464.512 312.997 462.86 314.216 461.641C315.434 460.423 317.087 459.737 318.81 459.735H333.569C335.293 459.737 336.945 460.423 338.163 461.641C339.382 462.86 340.067 464.512 340.069 466.235V589.249C340.067 590.972 339.382 592.624 338.163 593.843C336.945 595.062 335.293 595.747 333.569 595.749V595.749Z" fill="#1FA2FF"/>
<path d="M375.125 396.466L368.362 383.347C367.574 381.815 367.426 380.032 367.951 378.391C368.475 376.749 369.63 375.383 371.161 374.591L480.498 318.22C482.03 317.432 483.813 317.284 485.454 317.809C487.096 318.333 488.462 319.488 489.254 321.019L496.017 334.137C496.805 335.67 496.953 337.452 496.428 339.094C495.904 340.735 494.749 342.102 493.219 342.893L383.881 399.264C382.349 400.052 380.566 400.2 378.925 399.676C377.283 399.151 375.917 397.997 375.125 396.466V396.466Z" fill="#1FA2FF"/>
<path d="M412.94 529.77L400.933 538.355C399.53 539.356 397.788 539.759 396.088 539.476C394.388 539.194 392.869 538.249 391.865 536.848L320.317 436.782C319.316 435.379 318.913 433.637 319.195 431.937C319.478 430.237 320.423 428.718 321.824 427.714L333.83 419.129C335.233 418.129 336.976 417.725 338.676 418.008C340.376 418.29 341.894 419.236 342.898 420.636L414.447 520.702C415.447 522.105 415.851 523.848 415.568 525.548C415.286 527.248 414.34 528.766 412.94 529.77V529.77Z" fill="#1FA2FF"/>
<path d="M374.176 594.886L360.963 588.308C357.755 586.71 355.952 583.789 356.944 581.797L390.997 513.397C391.989 511.404 395.407 511.083 398.615 512.68L411.828 519.258C415.036 520.855 416.839 523.776 415.847 525.769L381.794 594.168C380.802 596.161 377.384 596.483 374.176 594.886Z" fill="#1FA2FF"/>
<path d="M373.828 276.196L373.772 274.196C377.493 274.092 380.773 273.859 383.238 272.058C383.937 271.518 384.511 270.835 384.922 270.053C385.333 269.272 385.571 268.411 385.619 267.53C385.663 266.991 385.581 266.45 385.381 265.948C385.181 265.446 384.868 264.996 384.466 264.635C382.831 263.252 380.198 263.7 378.279 264.58L376.624 265.339L379.797 242.149L381.779 242.42L379.079 262.147C381.687 261.38 384.103 261.709 385.758 263.108C386.393 263.663 386.891 264.357 387.214 265.136C387.537 265.915 387.675 266.758 387.618 267.6C387.559 268.784 387.243 269.942 386.69 270.991C386.137 272.04 385.362 272.955 384.418 273.673C381.251 275.988 377.135 276.103 373.828 276.196Z" fill="#2F2E41"/>
<path d="M368.349 244.121H357.578V246.121H368.349V244.121Z" fill="#2F2E41"/>
<path d="M421.165 439C421.165 482.631 379.796 479 336.165 479C292.535 479 263.165 482.631 263.165 439C263.165 395.369 292.535 321 336.165 321C379.796 321 421.165 395.37 421.165 439Z" fill="#CCCCCC"/>
<path d="M367.637 199.73C365.638 187.815 358.09 177.571 348.379 170.656C338.858 163.997 327.476 160.518 315.859 160.714C293.366 160.962 271.373 173.56 259.313 192.464C245.953 213.408 245.69 240.757 254.721 263.401C257.03 269.234 259.958 274.803 263.453 280.012C267.33 285.757 272.027 290.825 276.595 296.013C285.108 305.683 294.869 319.13 289.164 332.622C287.057 337.605 282.612 342.136 276.955 342.493C272.18 342.794 266.885 340.51 264.768 336.022C262.396 330.993 265.68 325.041 270.532 322.983C275.621 320.824 280.91 324.009 282.79 328.907C283.724 331.162 283.756 333.69 282.879 335.968C282.692 336.315 282.643 336.719 282.743 337.1C282.843 337.481 283.084 337.81 283.417 338.02C283.761 338.219 284.17 338.274 284.554 338.173C284.938 338.072 285.267 337.824 285.47 337.482C286.479 334.958 286.699 332.187 286.098 329.535C285.498 326.884 284.106 324.477 282.107 322.634C280.079 320.691 277.428 319.53 274.624 319.356C271.821 319.183 269.046 320.009 266.794 321.687C262.038 325.161 259.523 331.379 261.933 336.99C264.02 341.848 269.069 344.782 274.168 345.401C276.981 345.678 279.818 345.223 282.402 344.078C284.986 342.934 287.231 341.14 288.916 338.871C292.677 333.947 294.381 327.756 293.67 321.601C292 306.247 279.734 295.75 270.525 284.513C262.337 274.445 256.566 262.633 253.657 249.985C250.679 237.554 250.79 224.583 253.98 212.204C257.073 200.467 263.431 189.848 272.316 181.578C280.843 173.676 291.258 168.096 302.561 165.373C313.736 162.591 325.496 163.307 336.251 167.423C347.524 171.895 357.529 180.744 362.296 192.012C363.442 194.745 364.263 197.603 364.744 200.528C365.063 202.428 367.955 201.622 367.637 199.731V199.73Z" fill="#2F2E41"/>
<path d="M367.572 200.182C372.58 195.357 380.745 194.661 386.78 197.93C393.023 201.311 395.528 208.592 393.927 215.33C393.105 219.094 390.93 222.425 387.815 224.692C386.242 225.788 387.74 228.389 389.33 227.283C396.082 222.582 398.926 213.523 396.621 205.687C394.215 197.505 386.223 192.62 377.877 192.946C373.247 193.069 368.825 194.889 365.45 198.061C364.057 199.403 366.18 201.523 367.572 200.182Z" fill="#2F2E41"/>
<path d="M323.757 380.69L332.039 368.474C333.008 367.048 334.502 366.065 336.194 365.741C337.887 365.416 339.639 365.775 341.067 366.741L442.889 435.766C444.314 436.735 445.297 438.23 445.622 439.922C445.947 441.614 445.587 443.366 444.622 444.794L436.34 457.011C435.372 458.436 433.877 459.419 432.185 459.744C430.492 460.069 428.74 459.709 427.313 458.744L325.49 389.718C324.065 388.749 323.082 387.255 322.757 385.562C322.432 383.87 322.792 382.118 323.757 380.69V380.69Z" fill="#1FA2FF"/>
<path d="M515.301 317.585C515.574 314.054 514.585 310.542 512.511 307.672L486.35 289.004C485.854 288.65 485.292 288.397 484.698 288.26C484.104 288.123 483.488 288.104 482.887 288.204C482.285 288.305 481.71 288.523 481.192 288.846C480.675 289.169 480.227 289.591 479.873 290.087L476.112 295.358C476.098 295.344 476.098 295.322 476.082 295.31C476.006 295.256 475.912 295.234 475.821 295.25C475.729 295.265 475.647 295.316 475.593 295.392L474.052 297.552C474.025 297.589 474.006 297.632 473.996 297.676C473.986 297.721 473.984 297.767 473.992 297.813C473.999 297.858 474.016 297.902 474.04 297.941C474.064 297.98 474.096 298.013 474.134 298.04C474.15 298.052 474.171 298.044 474.189 298.053L472.527 300.382C472.517 300.369 472.506 300.358 472.494 300.347C472.453 300.317 472.406 300.296 472.357 300.285C472.307 300.273 472.256 300.272 472.206 300.28C472.155 300.288 472.107 300.307 472.064 300.333C472.021 300.36 471.984 300.396 471.954 300.437L469.011 304.562C468.981 304.603 468.96 304.65 468.949 304.7C468.937 304.749 468.936 304.8 468.944 304.85C468.952 304.901 468.971 304.949 468.998 304.992C469.024 305.035 469.06 305.072 469.101 305.102C469.115 305.109 469.13 305.116 469.145 305.122L467.95 306.796C467.941 306.789 467.937 306.778 467.927 306.771C467.848 306.715 467.749 306.692 467.652 306.708C467.556 306.724 467.47 306.778 467.413 306.857L464.416 311.058C464.359 311.137 464.336 311.236 464.353 311.332C464.369 311.429 464.422 311.515 464.502 311.572C464.511 311.578 464.523 311.58 464.532 311.585L436.362 351.064C436.089 354.595 437.078 358.108 439.152 360.978L465.313 379.645C465.81 379.999 466.371 380.252 466.965 380.39C467.559 380.527 468.175 380.546 468.776 380.445C469.378 380.345 469.953 380.127 470.471 379.803C470.988 379.48 471.436 379.058 471.791 378.562L502.106 336.077C502.138 336.123 502.175 336.163 502.219 336.198C502.285 336.245 502.361 336.279 502.44 336.296C502.52 336.314 502.603 336.316 502.683 336.302C502.764 336.288 502.84 336.258 502.909 336.214C502.978 336.171 503.038 336.114 503.085 336.047L508.287 328.757C508.335 328.691 508.369 328.616 508.388 328.536C508.407 328.457 508.41 328.375 508.398 328.294C508.385 328.213 508.356 328.136 508.313 328.066C508.271 327.997 508.214 327.936 508.148 327.888C508.101 327.859 508.051 327.836 507.997 327.821L515.301 317.585Z" fill="#3A3768"/>
<path d="M510.149 308.781L506.298 306.017L505.966 306.478C505.555 307.042 504.941 307.425 504.254 307.546C503.566 307.666 502.858 307.514 502.28 307.123L489.971 298.333C489.387 297.914 488.993 297.282 488.875 296.573C488.758 295.865 488.926 295.139 489.344 294.555L489.676 294.094L485.99 291.514C485.284 291.005 484.406 290.798 483.547 290.937C482.688 291.076 481.92 291.551 481.411 292.257L481.402 292.27L438.87 351.884C438.364 352.594 438.16 353.474 438.302 354.334C438.443 355.194 438.919 355.962 439.625 356.473L463.84 373.739C464.547 374.246 465.427 374.451 466.285 374.309C467.143 374.167 467.91 373.689 468.416 372.982L468.428 372.965L510.96 313.37C511.462 312.659 511.661 311.778 511.513 310.921C511.366 310.064 510.884 309.3 510.173 308.798L510.149 308.781Z" fill="#F2F2F2"/>
<path d="M495.186 298.422L498.936 301.098C498.999 301.143 499.053 301.2 499.094 301.265C499.135 301.331 499.163 301.404 499.175 301.481C499.188 301.557 499.186 301.635 499.168 301.711C499.151 301.786 499.119 301.857 499.074 301.92C499.029 301.983 498.972 302.037 498.906 302.078C498.841 302.119 498.767 302.147 498.691 302.159C498.615 302.172 498.537 302.17 498.461 302.152C498.386 302.135 498.314 302.103 498.251 302.058L494.501 299.382C494.438 299.337 494.385 299.28 494.344 299.214C494.302 299.149 494.275 299.076 494.262 298.999C494.249 298.923 494.252 298.845 494.269 298.769C494.287 298.694 494.319 298.622 494.364 298.559V298.559C494.409 298.496 494.466 298.443 494.531 298.402C494.597 298.361 494.67 298.333 494.746 298.32C494.823 298.308 494.901 298.31 494.976 298.327C495.052 298.345 495.123 298.377 495.186 298.422V298.422Z" fill="#E6E8EC"/>
<path d="M500.235 303.529C500.601 303.529 500.898 303.232 500.898 302.866C500.898 302.499 500.601 302.202 500.235 302.202C499.868 302.202 499.571 302.499 499.571 302.866C499.571 303.232 499.868 303.529 500.235 303.529Z" fill="#E6E8EC"/>
<path d="M485.174 0C467.405 0 450.363 7.05892 437.798 19.6239C425.233 32.1888 418.174 49.2305 418.174 67C418.174 104 488.374 240.5 488.374 240.5C488.374 240.5 552.174 104.02 552.174 67.01C552.175 58.2114 550.444 49.4988 547.078 41.3695C543.712 33.2401 538.778 25.8534 532.557 19.6309C526.337 13.4085 518.951 8.47218 510.823 5.1039C502.695 1.73562 493.983 0.00131312 485.184 0H485.174ZM485.174 111.68C478.232 111.68 471.446 109.621 465.674 105.765C459.901 101.908 455.403 96.4259 452.746 90.0122C450.089 83.5985 449.394 76.5411 450.749 69.7323C452.103 62.9236 455.446 56.6694 460.355 51.7606C465.263 46.8517 471.518 43.5088 478.326 42.1544C485.135 40.8001 492.193 41.4952 498.606 44.1518C505.02 46.8085 510.502 51.3073 514.359 57.0795C518.216 62.8517 520.274 69.6379 520.274 76.58V76.58C520.274 85.8891 516.576 94.8169 509.994 101.399C503.411 107.982 494.483 111.68 485.174 111.68V111.68Z" fill="#1FA2FF"/>
</g>
<defs>
<clipPath id="clip0_28_2">
<rect width="726" height="597.692" fill="white"/>
</clipPath>
</defs>
</svg>
