<svg width="505" height="453" viewBox="0 0 505 453" fill="none" xmlns="http://www.w3.org/2000/svg">
<g clip-path="url(#clip0_28_26)">
<path d="M32.7669 27.4911C3.82877 91.9892 -26.0585 261.955 38.4396 290.893C69.4127 304.79 104.638 305.813 136.365 293.738C168.093 281.664 193.724 257.479 207.621 226.506C221.517 195.533 222.541 160.308 210.466 128.581C198.391 96.853 174.207 71.2216 143.234 57.325C78.7356 28.3869 61.705 -37.0071 32.7669 27.4911Z" fill="#F2F2F2"/>
<path d="M352.57 303.653C351.196 303.65 349.855 303.236 348.719 302.464C347.583 301.692 346.705 300.598 346.196 299.322L314.534 231.103C313.854 229.385 313.519 227.549 313.548 225.701C313.577 223.854 313.969 222.03 314.703 220.333C315.437 218.637 316.498 217.102 317.825 215.816C319.152 214.53 320.72 213.518 322.438 212.838C324.156 212.157 325.992 211.822 327.839 211.851C329.687 211.88 331.511 212.273 333.207 213.006C334.904 213.74 336.439 214.801 337.725 216.128C339.011 217.455 340.023 219.023 340.703 220.741L368.365 288.96C368.723 289.857 368.886 290.821 368.843 291.786V291.786C368.782 293.106 368.342 294.38 367.575 295.457C366.808 296.533 365.746 297.364 364.518 297.852L351.087 303.17C350.273 303.492 353.421 303.653 352.57 303.653Z" fill="#1FA2FF"/>
<path d="M184.273 317.463C183.55 317.133 182.89 316.679 182.322 316.122L171.645 305.681L171.657 305.669C170.51 304.372 169.896 302.689 169.939 300.958C169.982 299.227 170.677 297.576 171.887 296.336L251.007 215.425C253.525 212.851 256.933 211.34 260.531 211.202C264.129 211.065 267.643 212.312 270.349 214.686C273.056 217.061 274.749 220.382 275.082 223.967C275.414 227.552 274.36 231.128 272.136 233.96V233.96C271.821 234.358 271.486 234.74 271.131 235.103L192.01 316.014C191.025 317.02 189.754 317.699 188.37 317.958C186.986 318.217 185.556 318.045 184.273 317.463V317.463Z" fill="#1FA2FF"/>
<path d="M316.984 451.414H302.539C300.723 451.412 298.982 450.689 297.697 449.405C296.413 448.121 295.691 446.38 295.689 444.563V324.174C295.691 322.358 296.413 320.617 297.697 319.332C298.982 318.048 300.723 317.326 302.539 317.324H316.984C318.8 317.326 320.541 318.048 321.826 319.332C323.11 320.617 323.832 322.358 323.834 324.174V444.563C323.832 446.38 323.11 448.121 321.826 449.405C320.541 450.689 318.8 451.412 316.984 451.414Z" fill="#1FA2FF"/>
<path d="M284.5 451.414H270.055C268.239 451.412 266.497 450.689 265.213 449.405C263.929 448.121 263.206 446.38 263.204 444.563V324.174C263.206 322.358 263.929 320.617 265.213 319.332C266.497 318.048 268.239 317.326 270.055 317.324H284.5C286.316 317.326 288.057 318.048 289.342 319.332C290.626 320.617 291.348 322.358 291.35 324.174V444.563C291.348 446.38 290.626 448.121 289.342 449.405C288.057 450.689 286.316 451.412 284.5 451.414V451.414Z" fill="#1FA2FF"/>
<path d="M293.088 186.302C320.653 186.302 343 163.955 343 136.39C343 108.825 320.653 86.4783 293.088 86.4783C265.522 86.4783 243.176 108.825 243.176 136.39C243.176 163.955 265.522 186.302 293.088 186.302Z" fill="#1FA2FF"/>
<path d="M265.923 159.342C262.688 159.252 258.661 159.14 255.559 156.874C254.635 156.172 253.876 155.276 253.335 154.249C252.794 153.222 252.485 152.09 252.427 150.931C252.371 150.107 252.506 149.282 252.822 148.519C253.138 147.756 253.626 147.076 254.248 146.534C255.868 145.164 258.234 144.843 260.784 145.593L258.142 126.288L260.081 126.022L263.187 148.717L261.567 147.974C259.69 147.113 257.113 146.675 255.511 148.028C255.118 148.382 254.812 148.822 254.616 149.313C254.421 149.805 254.341 150.335 254.383 150.862C254.431 151.725 254.664 152.567 255.066 153.332C255.468 154.096 256.03 154.765 256.714 155.293C259.128 157.056 262.337 157.284 265.978 157.386L265.923 159.342Z" fill="#2F2E41"/>
<path d="M248.552 127.953H238.01V129.91H248.552V127.953Z" fill="#2F2E41"/>
<path d="M281.826 127.953H271.285V129.91H281.826V127.953Z" fill="#2F2E41"/>
<path d="M329.758 291.494L343.457 229.515C343.457 223.672 341.136 218.068 337.004 213.936C332.872 209.804 327.268 207.483 321.425 207.483H261.75C255.907 207.483 250.303 209.804 246.172 213.936C242.04 218.068 239.719 223.672 239.719 229.515L256.215 291.023C246.727 292.262 262.207 330.006 262.207 330.006L322.884 330.5C322.884 330.5 337.793 293.152 329.758 291.494Z" fill="#2F2E41"/>
<path d="M292.043 321.006H261.043V394.006H292.043V321.006Z" fill="#2F2E41"/>
<path d="M325.043 321.006H294.043V394.006H325.043V321.006Z" fill="#2F2E41"/>
<path d="M278.692 112.149C277.153 107.347 272.895 104.104 268.152 102.778C261.955 101.045 255.451 102.638 249.321 103.859C243.513 105.015 237.034 106 231.641 102.897C227.661 100.608 224.9 96.0057 227.241 91.5553C227.658 90.6392 228.297 89.8418 229.1 89.2355C229.904 88.6292 230.846 88.2331 231.842 88.0834C234.311 87.8666 236.699 89.1543 239.174 89.1461C240.308 89.1863 241.424 88.853 242.35 88.1974C243.276 87.5418 243.962 86.6003 244.301 85.5173C244.945 83.3961 244.298 81.2283 244.449 79.0756C244.786 74.2627 250.629 78.7263 252.712 79.6162C253.639 80.0925 254.655 80.3704 255.696 80.4321C256.736 80.4938 257.778 80.3381 258.755 79.9748C261.006 79.0018 262.362 76.8471 263.708 74.9098C265.167 72.6725 267.309 70.9649 269.815 70.0399C272.32 69.1149 275.058 69.0218 277.621 69.7744C282.957 71.4554 286.219 77.1354 285.668 82.5687C285.473 84.4878 288.474 84.4742 288.668 82.5687C288.888 79.9139 288.414 77.2474 287.292 74.8313C286.17 72.4152 284.438 70.3327 282.267 68.7885C279.023 66.6347 275.07 65.8222 271.239 66.5217C267.408 67.2212 263.998 69.3783 261.724 72.5397C260.465 74.2494 259.139 77.1357 256.774 77.4692C254.797 77.748 252.758 76.3301 251.107 75.4515C249.369 74.5265 247.403 73.496 245.369 73.8725C244.313 74.1199 243.366 74.7024 242.669 75.5329C241.972 76.3634 241.563 77.3973 241.502 78.4799C241.42 79.5199 241.431 80.5654 241.537 81.6033C241.749 82.7462 241.664 83.9244 241.29 85.0249C240.147 87.2406 236.488 85.692 234.706 85.3567C233.544 85.0595 232.333 85.0037 231.149 85.1927C229.964 85.3816 228.831 85.8113 227.819 86.4552C225.833 87.8779 224.401 89.9445 223.766 92.3038C223.131 94.663 223.333 97.1692 224.337 99.3966C226.541 104.231 231.767 107.038 236.844 107.736C244.809 108.833 252.384 105.585 260.245 105.09C266.211 104.714 273.736 106.508 275.799 112.946C276.386 114.778 279.284 113.995 278.692 112.149H278.692Z" fill="#2F2E41"/>
<path d="M151.831 211.949C139.523 207.418 125.272 211.855 117.034 221.87C112.916 226.947 110.397 233.131 109.795 239.64C109.193 246.149 110.536 252.69 113.653 258.436C117.043 264.626 122.481 269.445 129.034 272.066C135.086 274.396 141.763 274.538 147.908 272.466C148.466 272.918 149.122 273.233 149.823 273.386C150.525 273.539 151.252 273.526 151.947 273.347C152.793 273.131 153.562 272.683 154.165 272.052C154.768 271.421 155.182 270.633 155.36 269.779C155.538 268.924 155.473 268.037 155.172 267.217C154.87 266.398 154.345 265.68 153.656 265.144C152.966 264.609 152.14 264.277 151.272 264.188C150.404 264.098 149.528 264.254 148.744 264.638C147.96 265.022 147.299 265.618 146.837 266.358C146.375 267.099 146.13 267.954 146.129 268.827C146.137 269.011 146.155 269.193 146.185 269.374C136.563 272.384 125.933 268.687 119.501 260.874C116.043 256.529 113.887 251.294 113.283 245.774C112.679 240.254 113.653 234.676 116.09 229.687C118.463 224.92 122.106 220.901 126.617 218.073C131.129 215.245 136.334 213.718 141.658 213.66C152.822 213.696 163.385 221.063 165.615 232.312C166.175 235.205 166.102 238.185 165.4 241.047C164.699 243.909 163.386 246.585 161.552 248.891C159.69 251.151 157.027 253.38 153.945 253.407C153.416 253.368 152.913 253.163 152.508 252.82C151.622 252.13 150.931 251.22 150.503 250.182C150.076 249.143 149.927 248.01 150.072 246.896C150.422 243.762 150.995 238.637 151.34 235.549C151.451 233.712 151.771 231.894 152.295 230.13C152.504 229.855 152.636 229.529 152.678 229.186C153.375 227.86 154.723 226.46 156.305 226.673C156.751 226.78 157.222 226.713 157.621 226.486C158.02 226.26 158.319 225.89 158.456 225.452C158.577 225.004 158.516 224.528 158.287 224.125C158.059 223.722 157.68 223.426 157.235 223.3C156.086 223.128 154.914 223.244 153.822 223.638C152.73 224.032 151.752 224.691 150.978 225.555C150.629 225.94 150.316 226.356 150.043 226.798C140.828 223.041 129.204 226.578 124.474 235.642C121.861 240.651 121.496 246.806 124.376 251.786C126.942 256.224 131.895 259.457 137.137 259.028C140.312 258.748 143.301 257.408 145.623 255.224C146.056 254.829 146.615 254.601 147.201 254.582C147.787 254.564 148.36 254.755 148.817 255.122L148.835 255.136C150.056 256.054 151.496 256.638 153.011 256.829C154.526 257.021 156.066 256.814 157.477 256.228C163.364 254.014 167.314 247.869 168.754 241.97C171.883 229.162 163.909 216.394 151.831 211.949ZM138.551 253.086C136.696 253.518 134.749 253.288 133.046 252.436C131.343 251.585 129.99 250.165 129.223 248.423C126.891 243.759 128.416 232.43 136.662 229.7C140.58 228.364 144.847 228.477 148.689 230.017C148.48 230.826 148.319 231.646 148.208 232.474C147.549 237.252 146.235 247.293 146.142 247.606C145.249 251.569 142.502 252.259 138.551 253.086V253.086Z" fill="#3F3D56"/>
<path d="M64.8928 128.205C54.0253 124.205 41.4431 128.122 34.1693 136.964C30.5338 141.447 28.3096 146.907 27.7782 152.654C27.2468 158.401 28.4321 164.176 31.1841 169.249C34.1776 174.715 38.9786 178.969 44.7645 181.283C50.1081 183.341 56.003 183.466 61.4289 181.636C61.9214 182.035 62.5004 182.314 63.1197 182.449C63.7389 182.584 64.3812 182.572 64.9951 182.415C65.7419 182.224 66.4202 181.828 66.9529 181.271C67.4856 180.714 67.8514 180.018 68.0085 179.264C68.1656 178.509 68.1078 177.726 67.8418 177.002C67.5757 176.279 67.112 175.645 66.5033 175.172C65.8947 174.699 65.1656 174.407 64.3989 174.328C63.6322 174.249 62.8588 174.386 62.1665 174.725C61.4742 175.064 60.8909 175.59 60.4828 176.244C60.0748 176.898 59.8584 177.653 59.8583 178.424C59.8649 178.586 59.8812 178.747 59.907 178.907C51.4118 181.564 42.0268 178.3 36.3475 171.401C33.2942 167.566 31.3906 162.943 30.8576 158.069C30.3246 153.196 31.184 148.271 33.3361 143.866C35.431 139.657 38.6475 136.109 42.6308 133.612C46.6141 131.115 51.2096 129.767 55.9105 129.715C65.767 129.748 75.0936 136.252 77.0627 146.184C77.557 148.738 77.4922 151.369 76.873 153.896C76.2537 156.423 75.0945 158.786 73.4752 160.822C71.8309 162.817 69.4798 164.785 66.7584 164.809C66.2914 164.775 65.8473 164.593 65.4903 164.291C64.7076 163.681 64.0975 162.879 63.7201 161.961C63.3428 161.044 63.2114 160.044 63.339 159.061C63.6484 156.293 64.1543 151.769 64.4591 149.042C64.5567 147.42 64.8394 145.815 65.302 144.257C65.4868 144.015 65.6034 143.727 65.6398 143.424C66.2559 142.253 67.4455 141.017 68.8421 141.205C69.2365 141.3 69.6519 141.241 70.0045 141.04C70.3571 140.84 70.6206 140.514 70.7417 140.127C70.8481 139.732 70.7946 139.311 70.5927 138.955C70.3908 138.6 70.0568 138.338 69.6632 138.227C68.6495 138.075 67.6141 138.178 66.6498 138.526C65.6856 138.873 64.8229 139.455 64.1392 140.218C63.8313 140.558 63.555 140.925 63.3136 141.315C55.1777 137.999 44.9146 141.122 40.7385 149.124C39.5317 151.303 38.8913 153.75 38.8762 156.24C38.861 158.731 39.4715 161.185 40.6517 163.378C42.9175 167.296 47.2901 170.151 51.9185 169.772C54.7221 169.525 57.361 168.342 59.4111 166.413C59.793 166.064 60.2871 165.863 60.8042 165.847C61.3213 165.83 61.8272 165.999 62.2307 166.323L62.2472 166.336C63.3252 167.146 64.596 167.662 65.934 167.831C67.2721 168 68.6311 167.817 69.8769 167.3C75.0752 165.345 78.5621 159.92 79.8341 154.712C82.5964 143.403 75.5561 132.13 64.8928 128.205ZM53.1668 164.526C51.5293 164.907 49.8102 164.704 48.3065 163.952C46.8028 163.2 45.6089 161.947 44.9311 160.408C42.8722 156.29 44.2186 146.288 51.4992 143.878C54.9586 142.698 58.7261 142.798 62.1186 144.157C61.9334 144.871 61.7913 145.596 61.6931 146.327C61.1114 150.545 59.9513 159.411 59.8694 159.687C59.0812 163.186 56.6552 163.795 53.1668 164.526Z" fill="#3F3D56"/>
<path d="M304.893 240.205C294.025 236.205 281.443 240.122 274.169 248.964C270.534 253.447 268.31 258.907 267.778 264.654C267.247 270.401 268.432 276.176 271.184 281.249C274.178 286.715 278.979 290.969 284.765 293.283C290.108 295.341 296.003 295.466 301.429 293.636C301.921 294.035 302.5 294.314 303.12 294.449C303.739 294.584 304.381 294.572 304.995 294.415C305.742 294.224 306.42 293.828 306.953 293.271C307.486 292.714 307.851 292.018 308.009 291.264C308.166 290.509 308.108 289.726 307.842 289.002C307.576 288.279 307.112 287.645 306.503 287.172C305.895 286.699 305.166 286.407 304.399 286.328C303.632 286.249 302.859 286.386 302.167 286.725C301.474 287.064 300.891 287.59 300.483 288.244C300.075 288.898 299.858 289.653 299.858 290.424C299.865 290.586 299.881 290.747 299.907 290.907C291.412 293.564 282.027 290.3 276.348 283.401C273.294 279.566 271.391 274.943 270.858 270.069C270.325 265.196 271.184 260.271 273.336 255.866C275.431 251.657 278.647 248.109 282.631 245.612C286.614 243.115 291.21 241.767 295.911 241.715C305.767 241.748 315.094 248.252 317.063 258.184C317.557 260.738 317.492 263.369 316.873 265.896C316.254 268.423 315.095 270.786 313.475 272.822C311.831 274.817 309.48 276.785 306.758 276.809C306.291 276.775 305.847 276.593 305.49 276.291C304.708 275.681 304.097 274.879 303.72 273.961C303.343 273.044 303.211 272.044 303.339 271.061C303.648 268.293 304.154 263.769 304.459 261.042C304.557 259.42 304.839 257.815 305.302 256.257C305.487 256.015 305.603 255.727 305.64 255.424C306.256 254.253 307.445 253.017 308.842 253.205C309.237 253.3 309.652 253.241 310.005 253.04C310.357 252.84 310.621 252.514 310.742 252.127C310.848 251.732 310.795 251.311 310.593 250.955C310.391 250.6 310.057 250.338 309.663 250.227C308.65 250.075 307.614 250.178 306.65 250.526C305.686 250.873 304.823 251.455 304.139 252.218C303.831 252.558 303.555 252.925 303.314 253.315C295.178 249.999 284.915 253.122 280.739 261.124C279.532 263.303 278.891 265.75 278.876 268.24C278.861 270.731 279.472 273.185 280.652 275.378C282.918 279.296 287.29 282.151 291.919 281.772C294.722 281.525 297.361 280.342 299.411 278.413C299.793 278.064 300.287 277.863 300.804 277.847C301.321 277.83 301.827 277.999 302.231 278.323L302.247 278.336C303.325 279.146 304.596 279.662 305.934 279.831C307.272 280 308.631 279.817 309.877 279.3C315.075 277.345 318.562 271.92 319.834 266.712C322.596 255.403 315.556 244.13 304.893 240.205ZM293.167 276.526C291.529 276.907 289.81 276.704 288.307 275.952C286.803 275.2 285.609 273.947 284.931 272.408C282.872 268.29 284.219 258.288 291.499 255.878C294.959 254.698 298.726 254.798 302.119 256.157C301.933 256.871 301.791 257.596 301.693 258.327C301.111 262.545 299.951 271.411 299.869 271.687C299.081 275.186 296.655 275.795 293.167 276.526V276.526Z" fill="#F2F2F2"/>
<path d="M273.549 223.294C270.807 222.358 267.844 222.282 265.058 223.076C262.271 223.871 259.794 225.498 257.958 227.739C256.113 230.014 254.985 232.785 254.715 235.701C254.445 238.617 255.047 241.548 256.443 244.122C257.962 246.896 260.399 249.055 263.335 250.229C266.046 251.273 269.038 251.336 271.791 250.408C272.041 250.611 272.335 250.752 272.649 250.82C272.963 250.889 273.289 250.883 273.601 250.803C273.98 250.706 274.324 250.505 274.594 250.223C274.865 249.94 275.05 249.587 275.13 249.204C275.21 248.821 275.18 248.424 275.045 248.057C274.91 247.69 274.675 247.368 274.366 247.128C274.057 246.888 273.687 246.739 273.298 246.699C272.909 246.659 272.517 246.729 272.165 246.901C271.814 247.073 271.518 247.34 271.311 247.672C271.104 248.004 270.994 248.387 270.994 248.778C270.997 248.86 271.006 248.942 271.019 249.023C268.873 249.636 266.593 249.602 264.466 248.925C262.339 248.247 260.46 246.956 259.064 245.214C257.514 243.268 256.548 240.922 256.278 238.449C256.007 235.976 256.443 233.477 257.535 231.242C258.598 229.106 260.231 227.305 262.252 226.038C264.273 224.771 266.605 224.087 268.991 224.061C273.993 224.077 278.725 227.378 279.724 232.418C279.975 233.714 279.942 235.049 279.628 236.331C279.314 237.614 278.726 238.813 277.904 239.846C277.512 240.406 277.006 240.876 276.418 241.225C275.83 241.574 275.175 241.793 274.496 241.869C274.259 241.852 274.033 241.76 273.852 241.606C273.455 241.297 273.145 240.889 272.954 240.424C272.762 239.959 272.696 239.451 272.76 238.952C272.917 237.548 273.174 235.252 273.329 233.868C273.378 233.045 273.522 232.231 273.757 231.44C273.85 231.317 273.909 231.171 273.928 231.017C274.241 230.423 274.844 229.796 275.553 229.891C275.753 229.939 275.964 229.909 276.143 229.808C276.322 229.706 276.455 229.54 276.517 229.344C276.571 229.144 276.544 228.93 276.441 228.75C276.339 228.569 276.169 228.437 275.97 228.38C275.455 228.303 274.93 228.355 274.441 228.532C273.951 228.708 273.513 229.003 273.166 229.391C273.01 229.563 272.87 229.749 272.748 229.947C270.682 229.105 268.381 229.043 266.274 229.772C264.166 230.501 262.395 231.972 261.292 233.91C260.679 235.015 260.354 236.257 260.347 237.521C260.339 238.785 260.649 240.03 261.248 241.143C261.806 242.161 262.636 243.004 263.646 243.577C264.656 244.15 265.805 244.431 266.965 244.388C268.388 244.262 269.727 243.662 270.767 242.683C270.961 242.506 271.212 242.404 271.474 242.396C271.737 242.387 271.993 242.473 272.198 242.637L272.206 242.644C272.753 243.055 273.398 243.317 274.077 243.402C274.756 243.488 275.446 243.395 276.078 243.133C278.716 242.141 280.485 239.388 281.131 236.745C282.533 231.006 278.96 225.286 273.549 223.294ZM267.599 241.726C266.768 241.919 265.895 241.816 265.132 241.434C264.369 241.053 263.763 240.417 263.419 239.636C262.375 237.546 263.058 232.471 266.752 231.248C268.508 230.649 270.42 230.699 272.141 231.389C272.047 231.752 271.975 232.119 271.925 232.49C271.63 234.631 271.041 239.13 271 239.27C270.6 241.046 269.369 241.355 267.599 241.726H267.599Z" fill="#F2F2F2"/>
<path d="M329.575 230.784C329.208 227.91 327.972 225.216 326.031 223.065C324.091 220.913 321.54 219.405 318.718 218.744C315.864 218.089 312.879 218.296 310.142 219.339C307.405 220.381 305.039 222.211 303.343 224.599C301.522 227.184 300.656 230.322 300.895 233.475C301.152 236.37 302.412 239.083 304.458 241.146C304.387 241.46 304.389 241.786 304.466 242.098C304.543 242.411 304.692 242.701 304.901 242.945C305.154 243.243 305.486 243.463 305.859 243.581C306.232 243.7 306.631 243.711 307.009 243.614C307.388 243.517 307.732 243.315 308.002 243.032C308.273 242.75 308.458 242.397 308.537 242.014C308.617 241.631 308.587 241.233 308.452 240.866C308.316 240.499 308.081 240.178 307.772 239.938C307.463 239.698 307.093 239.55 306.703 239.51C306.314 239.471 305.922 239.541 305.571 239.713C305.499 239.752 305.429 239.796 305.362 239.843C303.866 238.186 302.892 236.124 302.564 233.916C302.236 231.708 302.567 229.453 303.516 227.432C304.581 225.184 306.262 223.284 308.363 221.952C310.464 220.62 312.9 219.911 315.388 219.907C317.774 219.921 320.109 220.593 322.137 221.85C324.164 223.107 325.806 224.899 326.88 227.029C329.068 231.527 328.189 237.23 324.104 240.346C323.051 241.142 321.838 241.701 320.548 241.983C319.258 242.266 317.923 242.266 316.633 241.983C315.958 241.878 315.313 241.63 314.741 241.256C314.169 240.882 313.683 240.39 313.316 239.814C313.227 239.594 313.21 239.351 313.268 239.12C313.371 238.628 313.6 238.17 313.934 237.793C314.268 237.416 314.694 237.133 315.17 236.971L319.985 235.243C320.746 234.925 321.54 234.695 322.353 234.558C322.505 234.588 322.662 234.576 322.809 234.525C323.159 234.499 323.51 234.576 323.817 234.747C324.124 234.918 324.373 235.176 324.535 235.488C324.58 235.689 324.7 235.865 324.87 235.981C325.04 236.097 325.247 236.144 325.451 236.113C325.654 236.073 325.834 235.955 325.951 235.783C326.068 235.612 326.113 235.401 326.075 235.197C325.918 234.701 325.64 234.252 325.266 233.891C324.892 233.529 324.434 233.266 323.934 233.125C323.71 233.061 323.481 233.017 323.249 232.994C323.096 230.769 322.138 228.676 320.556 227.105C318.973 225.534 316.873 224.592 314.647 224.454C313.384 224.391 312.127 224.646 310.989 225.196C309.85 225.746 308.869 226.572 308.133 227.6C307.465 228.55 307.074 229.666 307.004 230.825C306.935 231.984 307.189 233.139 307.738 234.162C308.477 235.384 309.606 236.322 310.943 236.825C311.187 236.921 311.389 237.101 311.512 237.333C311.635 237.565 311.671 237.833 311.614 238.089L311.612 238.1C311.483 238.772 311.533 239.466 311.755 240.114C311.977 240.761 312.364 241.339 312.878 241.791C314.93 243.723 318.181 244.099 320.838 243.515C326.607 242.246 330.17 236.519 329.575 230.784ZM310.407 233.559C309.868 232.898 309.576 232.069 309.582 231.216C309.589 230.363 309.893 229.539 310.443 228.886C311.859 227.028 316.717 225.406 319.441 228.184C320.752 229.497 321.549 231.236 321.687 233.085C321.321 233.16 320.959 233.257 320.604 233.376C318.552 234.054 314.254 235.507 314.109 235.531C312.339 235.954 311.52 234.984 310.407 233.559Z" fill="#F2F2F2"/>
<path d="M146.132 98.6072C137.529 95.4408 127.569 98.5415 121.811 105.541C118.933 109.09 117.172 113.412 116.752 117.961C116.331 122.511 117.269 127.083 119.448 131.099C121.817 135.425 125.618 138.793 130.198 140.625C134.428 142.254 139.095 142.353 143.39 140.904C143.78 141.22 144.238 141.44 144.728 141.547C145.218 141.654 145.727 141.645 146.213 141.521C146.804 141.37 147.341 141.056 147.763 140.615C148.184 140.174 148.474 139.624 148.598 139.026C148.723 138.429 148.677 137.809 148.466 137.236C148.256 136.664 147.889 136.162 147.407 135.787C146.925 135.413 146.348 135.181 145.741 135.119C145.134 135.056 144.522 135.165 143.974 135.433C143.426 135.702 142.964 136.118 142.641 136.636C142.318 137.153 142.147 137.751 142.147 138.361C142.152 138.489 142.165 138.617 142.185 138.744C135.46 140.847 128.031 138.263 123.535 132.802C121.118 129.766 119.611 126.106 119.189 122.248C118.767 118.39 119.448 114.492 121.151 111.005C122.81 107.673 125.356 104.864 128.509 102.888C131.662 100.911 135.3 99.8437 139.021 99.803C146.824 99.8286 154.207 104.977 155.766 112.84C156.157 114.862 156.106 116.944 155.616 118.945C155.125 120.945 154.208 122.815 152.926 124.427C151.624 126.007 149.763 127.565 147.609 127.583C147.239 127.557 146.888 127.413 146.605 127.173C145.985 126.691 145.502 126.055 145.204 125.329C144.905 124.603 144.801 123.812 144.902 123.033C145.147 120.842 145.547 117.261 145.789 115.102C145.866 113.818 146.09 112.548 146.456 111.315C146.602 111.122 146.694 110.895 146.723 110.655C147.211 109.728 148.153 108.749 149.258 108.899C149.57 108.973 149.899 108.927 150.178 108.768C150.458 108.61 150.666 108.351 150.762 108.045C150.846 107.732 150.804 107.399 150.644 107.118C150.484 106.836 150.22 106.629 149.908 106.541C149.106 106.421 148.286 106.502 147.523 106.777C146.76 107.052 146.077 107.513 145.535 108.117C145.292 108.386 145.073 108.677 144.882 108.986C138.441 106.36 130.317 108.832 127.011 115.167C126.056 116.892 125.549 118.829 125.537 120.8C125.525 122.772 126.008 124.715 126.942 126.451C127.813 128.039 129.108 129.354 130.683 130.248C132.259 131.142 134.051 131.579 135.861 131.513C138.081 131.317 140.17 130.38 141.793 128.854C142.095 128.577 142.486 128.418 142.895 128.405C143.305 128.392 143.705 128.526 144.025 128.782L144.038 128.792C144.891 129.434 145.897 129.842 146.956 129.976C148.015 130.11 149.091 129.965 150.077 129.556C154.192 128.008 156.953 123.713 157.96 119.59C160.146 110.638 154.573 101.714 146.132 98.6072ZM136.849 127.36C135.553 127.661 134.192 127.5 133.002 126.905C131.812 126.31 130.867 125.318 130.33 124.1C128.7 120.84 129.766 112.922 135.529 111.014C138.268 110.081 141.25 110.159 143.936 111.236C143.789 111.801 143.677 112.374 143.599 112.953C143.139 116.292 142.22 123.311 142.155 123.529C141.531 126.299 139.611 126.781 136.849 127.36Z" fill="#3F3D56"/>
<path d="M303.407 285.363C303.906 284.084 304.778 282.984 305.909 282.204C307.039 281.425 308.378 281.001 309.751 280.989L355.167 279.119C357.016 279.105 358.85 279.456 360.563 280.151C362.276 280.846 363.836 281.872 365.152 283.17C366.469 284.468 367.517 286.013 368.236 287.716C368.955 289.42 369.332 291.248 369.345 293.097C369.357 294.946 369.005 296.779 368.308 298.492C367.612 300.205 366.585 301.763 365.286 303.079C363.987 304.395 362.441 305.441 360.737 306.16C359.033 306.878 357.205 307.253 355.356 307.264L309.939 309.134C308.973 309.143 308.017 308.947 307.133 308.557V308.557C305.924 308.023 304.895 307.151 304.17 306.046C303.444 304.942 303.053 303.651 303.043 302.33L302.946 287.885C302.939 287.023 303.095 286.167 303.407 285.363V285.363Z" fill="#1FA2FF"/>
</g>
<defs>
<clipPath id="clip0_28_26">
<rect width="504.873" height="452.105" fill="white"/>
</clipPath>
</defs>
</svg>
